<?xml version="1.0" encoding="UTF-8" standalone="no"?>
<svg
   version="1.1"
   width="463.31503"
   height="115.65892"
   style="clip-rule:evenodd;fill-rule:evenodd;image-rendering:optimizeQuality;shape-rendering:geometricPrecision;text-rendering:geometricPrecision"
   id="svg10"
   sodipodi:docname="Collegium Text Black 2024-04-17 02_05_12.svg"
   xmlns:inkscape="http://www.inkscape.org/namespaces/inkscape"
   xmlns:sodipodi="http://sodipodi.sourceforge.net/DTD/sodipodi-0.dtd"
   xmlns="http://www.w3.org/2000/svg"
   xmlns:svg="http://www.w3.org/2000/svg">
  <defs
     id="defs10">
    <filter
       inkscape:label="Fast Crop"
       inkscape:auto-region="false"
       inkscape:menu="Fill and Transparency"
       inkscape:menu-tooltip="Does not filter but adds a filter region"
       style="color-interpolation-filters:sRGB"
       id="filter10">
      <feColorMatrix
         type="saturate"
         values="1"
         id="feColorMatrix10" />
    </filter>
    <filter
       inkscape:label="Fast Crop"
       inkscape:auto-region="false"
       inkscape:menu="Fill and Transparency"
       inkscape:menu-tooltip="Does not filter but adds a filter region"
       style="color-interpolation-filters:sRGB"
       id="filter11">
      <feColorMatrix
         type="saturate"
         values="1"
         id="feColorMatrix11" />
    </filter>
    <filter
       inkscape:label="Fast Crop"
       inkscape:auto-region="false"
       inkscape:menu="Fill and Transparency"
       inkscape:menu-tooltip="Does not filter but adds a filter region"
       style="color-interpolation-filters:sRGB"
       id="filter12">
      <feColorMatrix
         type="saturate"
         values="1"
         id="feColorMatrix12" />
    </filter>
    <filter
       inkscape:label="Fast Crop"
       inkscape:auto-region="false"
       inkscape:menu="Fill and Transparency"
       inkscape:menu-tooltip="Does not filter but adds a filter region"
       style="color-interpolation-filters:sRGB"
       id="filter13">
      <feColorMatrix
         type="saturate"
         values="1"
         id="feColorMatrix13" />
    </filter>
    <filter
       inkscape:label="Fast Crop"
       inkscape:auto-region="false"
       inkscape:menu="Fill and Transparency"
       inkscape:menu-tooltip="Does not filter but adds a filter region"
       style="color-interpolation-filters:sRGB"
       id="filter14">
      <feColorMatrix
         type="saturate"
         values="1"
         id="feColorMatrix14" />
    </filter>
    <filter
       inkscape:label="Fast Crop"
       inkscape:auto-region="false"
       inkscape:menu="Fill and Transparency"
       inkscape:menu-tooltip="Does not filter but adds a filter region"
       style="color-interpolation-filters:sRGB"
       id="filter15">
      <feColorMatrix
         type="saturate"
         values="1"
         id="feColorMatrix15" />
    </filter>
    <filter
       inkscape:label="Fast Crop"
       inkscape:auto-region="false"
       inkscape:menu="Fill and Transparency"
       inkscape:menu-tooltip="Does not filter but adds a filter region"
       style="color-interpolation-filters:sRGB"
       id="filter16">
      <feColorMatrix
         type="saturate"
         values="1"
         id="feColorMatrix16" />
    </filter>
    <filter
       inkscape:label="Fast Crop"
       inkscape:auto-region="false"
       inkscape:menu="Fill and Transparency"
       inkscape:menu-tooltip="Does not filter but adds a filter region"
       style="color-interpolation-filters:sRGB"
       id="filter17">
      <feColorMatrix
         type="saturate"
         values="1"
         id="feColorMatrix17" />
    </filter>
    <filter
       inkscape:label="Fast Crop"
       inkscape:auto-region="false"
       inkscape:menu="Fill and Transparency"
       inkscape:menu-tooltip="Does not filter but adds a filter region"
       style="color-interpolation-filters:sRGB"
       id="filter18">
      <feColorMatrix
         type="saturate"
         values="1"
         id="feColorMatrix18" />
    </filter>
    <filter
       inkscape:label="Fast Crop"
       inkscape:auto-region="false"
       inkscape:menu="Fill and Transparency"
       inkscape:menu-tooltip="Does not filter but adds a filter region"
       style="color-interpolation-filters:sRGB"
       id="filter19">
      <feColorMatrix
         type="saturate"
         values="1"
         id="feColorMatrix19" />
    </filter>
  </defs>
  <sodipodi:namedview
     id="namedview10"
     pagecolor="#ffffff"
     bordercolor="#000000"
     borderopacity="0.25"
     inkscape:showpageshadow="2"
     inkscape:pageopacity="0.0"
     inkscape:pagecheckerboard="0"
     inkscape:deskcolor="#d1d1d1"
     inkscape:export-bgcolor="#ffffff00" />
  <g
     id="g1"
     style="filter:url(#filter10)"
     transform="translate(-18.253876,-198.7)">
    <path
       style="opacity:0.97"
       fill="#070807"
       d="m 139.5,206.5 c 5,0 10,0 15,0 0,26 0,52 0,78 -5,0 -10,0 -15,0 0,-26 0,-52 0,-78 z"
       id="path1" />
  </g>
  <g
     id="g2"
     style="filter:url(#filter11)"
     transform="translate(-18.253876,-198.7)">
    <path
       style="opacity:0.911"
       fill="#070807"
       d="m 166.5,206.5 c 5.333,0 10.667,0 16,0 0,26 0,52 0,78 -5.333,0 -10.667,0 -16,0 0,-26 0,-52 0,-78 z"
       id="path2" />
  </g>
  <g
     id="g3"
     style="filter:url(#filter12)"
     transform="translate(-18.253876,-198.7)">
    <path
       style="opacity:0.863"
       fill="#070807"
       d="m 313.5,207.5 c 9.158,-1.009 12.992,2.991 11.5,12 -5.333,5.333 -10.667,5.333 -16,0 -1.691,-5.369 -0.191,-9.369 4.5,-12 z"
       id="path3" />
  </g>
  <g
     id="g4"
     style="filter:url(#filter13)"
     transform="translate(-18.253876,-198.7)">
    <path
       style="opacity:0.913"
       fill="#070807"
       d="m 42.5,228.5 c 12.7703,-2.479 22.2703,1.855 28.5,13 1.1488,2.893 1.6488,5.893 1.5,9 -5,0 -10,0 -15,0 -0.8775,-7.787 -5.2108,-10.62 -13,-8.5 -4.3673,4.046 -6.0339,9.046 -5,15 -1.3206,7.068 1.0127,12.401 7,16 6.152,0.937 9.8186,-1.563 11,-7.5 5,0 10,0 15,0 -1.6605,13.767 -9.4938,20.767 -23.5,21 -14.6563,-0.824 -22.9897,-8.49 -25,-23 -3.1821,-16.984 2.9846,-28.651 18.5,-35 z"
       id="path4" />
  </g>
  <g
     id="g5"
     style="filter:url(#filter14)"
     transform="translate(-18.253876,-198.7)">
    <path
       style="opacity:0.917"
       fill="#070807"
       d="m 97.5,228.5 c 21.071,-2.092 32.071,7.408 33,28.5 -1.914,24.257 -14.581,33.257 -38,27 -10.4994,-5.62 -15.4994,-14.454 -15,-26.5 -0.2251,-14.725 6.4416,-24.392 20,-29 z m 2,13 c 7.663,-1.424 12.496,1.576 14.5,9 0.851,5.753 0.517,11.42 -1,17 -3.997,6.266 -9.163,7.433 -15.5,3.5 -1.817,-1.8 -2.9837,-3.966 -3.5,-6.5 -2.017,-8.747 -0.1837,-16.413 5.5,-23 z"
       id="path5" />
  </g>
  <g
     id="g6"
     style="filter:url(#filter15)"
     transform="translate(-18.253876,-198.7)">
    <path
       style="opacity:0.913"
       fill="#070807"
       d="m 210.5,228.5 c 9.692,-1.714 18.192,0.619 25.5,7 4.835,8.281 7.002,17.281 6.5,27 -11.686,-0.332 -23.352,10e-4 -35,1 3.666,8.724 9.999,11.557 19,8.5 2.333,-1.5 4.667,-3 7,-4.5 2.622,1.911 4.789,4.245 6.5,7 -0.149,3.516 -1.983,6.016 -5.5,7.5 -11.018,5.595 -22.018,5.261 -33,-1 -5.079,-3.99 -8.245,-9.157 -9.5,-15.5 -2.489,-12.593 0.677,-23.427 9.5,-32.5 3.092,-1.546 6.092,-3.046 9,-4.5 z m 3,13 c 8.402,-1.656 12.735,1.677 13,10 -6.368,0.33 -12.702,-0.004 -19,-1 1.278,-3.588 3.278,-6.588 6,-9 z"
       id="path6" />
  </g>
  <g
     id="g7"
     style="filter:url(#filter16)"
     transform="translate(-18.253876,-198.7)">
    <path
       style="opacity:0.916"
       fill="#070807"
       d="m 263.5,228.5 c 4.014,-0.166 8.014,0.001 12,0.5 3.048,0.606 5.548,2.106 7.5,4.5 0.49,-1.293 0.657,-2.627 0.5,-4 5,0 10,0 15,0 0.441,20.712 -0.059,41.379 -1.5,62 -4.847,10.598 -13.18,15.598 -25,15 -8.577,0.122 -15.744,-2.878 -21.5,-9 1.982,-3.31 4.315,-6.31 7,-9 7.104,6.668 14.604,7.334 22.5,2 4.39,-8.016 3.223,-9.849 -3.5,-5.5 -12.144,3.012 -20.978,-1.154 -26.5,-12.5 -3.826,-11.951 -3.16,-23.618 2,-35 3.183,-4.038 7.016,-7.038 11.5,-9 z m 6,13 c 4.947,-0.872 9.113,0.461 12.5,4 0.667,8 0.667,16 0,24 -5.374,5.184 -10.707,5.184 -16,0 -5.235,-10.237 -4.068,-19.57 3.5,-28 z"
       id="path7" />
  </g>
  <g
     id="g8"
     style="filter:url(#filter17)"
     transform="translate(-18.253876,-198.7)">
    <path
       style="opacity:0.915"
       fill="#070807"
       d="m 418.5,228.5 c 8.315,-1.755 15.148,0.579 20.5,7 7.306,-6.993 15.806,-8.826 25.5,-5.5 5.309,3.324 8.142,8.158 8.5,14.5 0.5,13.329 0.667,26.663 0.5,40 -5.333,0 -10.667,0 -16,0 0.167,-13.004 0,-26.004 -0.5,-39 -1.018,-3.183 -3.185,-4.516 -6.5,-4 -3.535,-0.149 -6.368,1.184 -8.5,4 -0.5,12.996 -0.667,25.996 -0.5,39 -5.333,0 -10.667,0 -16,0 0.167,-13.004 0,-26.004 -0.5,-39 -1.135,-3.359 -3.468,-4.692 -7,-4 -3.545,-0.461 -6.212,0.872 -8,4 -0.5,12.996 -0.667,25.996 -0.5,39 -5.333,0 -10.667,0 -16,0 0,-18.333 0,-36.667 0,-55 5,0 10,0 15,0 -0.16,1.699 0.006,3.366 0.5,5 2.843,-2.663 6.009,-4.663 9.5,-6 z"
       id="path8" />
  </g>
  <g
     id="g9"
     style="filter:url(#filter18)"
     transform="translate(-18.253876,-198.7)">
    <path
       style="opacity:0.969"
       fill="#070807"
       d="m 309.5,229.5 c 5,0 10,0 15,0 0,18.333 0,36.667 0,55 -5,0 -10,0 -15,0 0,-18.333 0,-36.667 0,-55 z"
       id="path9" />
  </g>
  <g
     id="g10"
     style="filter:url(#filter19)"
     transform="translate(-18.253876,-198.7)">
    <path
       style="opacity:0.934"
       fill="#070807"
       d="m 335.5,229.5 c 5.333,0 10.667,0 16,0 -0.167,13.337 0,26.671 0.5,40 5.505,5.145 10.839,4.812 16,-1 0.5,-12.996 0.667,-25.996 0.5,-39 5,0 10,0 15,0 0,18.333 0,36.667 0,55 -5,0 -10,0 -15,0 0.219,-1.175 -0.114,-2.175 -1,-3 -9.907,6.567 -19.407,5.9 -28.5,-2 -1.562,-2.457 -2.562,-5.124 -3,-8 -0.5,-13.996 -0.667,-27.996 -0.5,-42 z"
       id="path10" />
  </g>
</svg>
